<svg viewBox="0 0 512 512" xmlns="http://www.w3.org/2000/svg">
  <defs>
    <linearGradient id="bg1" x1="0%" y1="0%" x2="100%" y2="100%">
      <stop offset="0%" style="stop-color:#1e3a8a"/>
      <stop offset="100%" style="stop-color:#0f172a"/>
    </linearGradient>
    <linearGradient id="drop1" x1="0%" y1="0%" x2="100%" y2="100%">
      <stop offset="0%" style="stop-color:#fbbf24"/>
      <stop offset="100%" style="stop-color:#d97706"/>
    </linearGradient>
  </defs>
  <rect width="512" height="512" rx="96" fill="url(#bg1)"/>
  <path d="M256 100 C256 100 160 210 160 295 C160 348 203 390 256 390 C309 390 352 348 352 295 C352 210 256 100 256 100Z" fill="url(#drop1)" opacity="0.95"/>
  <ellipse cx="220" cy="240" rx="18" ry="30" fill="white" opacity="0.25" transform="rotate(-20,220,240)"/>
  <g transform="translate(256,295)" opacity="0.7">
    <circle r="55" fill="none" stroke="#93c5fd" stroke-width="8"/>
    <circle r="35" fill="none" stroke="#93c5fd" stroke-width="8"/>
    <rect x="-8" y="-65" width="16" height="20" rx="3" fill="#93c5fd"/>
    <rect x="-8" y="45" width="16" height="20" rx="3" fill="#93c5fd"/>
    <rect x="45" y="-8" width="20" height="16" rx="3" fill="#93c5fd"/>
    <rect x="-65" y="-8" width="20" height="16" rx="3" fill="#93c5fd"/>
    <rect x="28" y="-58" width="16" height="20" rx="3" fill="#93c5fd" transform="rotate(45,36,-48)"/>
    <rect x="-44" y="-58" width="16" height="20" rx="3" fill="#93c5fd" transform="rotate(-45,-36,-48)"/>
    <rect x="28" y="38" width="16" height="20" rx="3" fill="#93c5fd" transform="rotate(-45,36,48)"/>
    <rect x="-44" y="38" width="16" height="20" rx="3" fill="#93c5fd" transform="rotate(45,-36,48)"/>
  </g>
  <text x="256" y="455" text-anchor="middle" font-family="Arial Black" font-size="52" font-weight="900" fill="#fbbf24" letter-spacing="8">OIL</text>
</svg>
